<svg width="62" height="66" viewBox="0 0 62 66" fill="none" xmlns="http://www.w3.org/2000/svg">
<path fill-rule="evenodd" clip-rule="evenodd" d="M60 2.38733L1.51636 2.38733L1.51636 49.3808L60 49.3808V45.7335L50.5466 38.2286H52.3809L60 34.5112H50.5466L60 26.9361L60 2.38733ZM42.7159 43.0682V26.9361L24.2325 26.9361L42.7159 43.0682ZM28.2537 35.4932C30.3984 37.2887 37.0956 43.0682 40.1762 45.7335H24.2325C26.1373 44.471 28.2537 40.6835 28.2537 35.4932ZM24.5147 36.6855C24.5147 42.2967 20.5939 45.7335 14.8498 45.7335C9.62159 45.7335 5.89028 41.2446 5.89028 36.6855C5.89028 31.0042 9.98202 26.9361 14.8498 26.9361C20.8463 26.9361 24.5147 31.0744 24.5147 36.6855ZM17.5306 14.4513L26.6311 23.2889L8.0067 23.2889L17.5306 14.4513ZM28.8887 20.1326L28.8887 5.96444L26.1373 5.96444L20.0703 11.786L28.8887 20.1326ZM20.8463 5.96444L14.1443 5.96444L17.5306 9.12072L20.8463 5.96444ZM5.04372 5.96444L8.92381 5.96444L14.8498 11.786L5.04372 20.1326L5.04372 5.96444ZM42.7159 23.2889V5.96444L32.6982 5.96444V23.2889L35.7317 23.2889V9.12072L39.3296 16.1347V23.2889H42.7159ZM46.4549 5.96444V23.2889H56.5431V5.96444H53.6507V19.1507L50.0528 12.1367V5.96444L46.4549 5.96444ZM46.4549 26.9361V33.1786L54.2856 26.9361H46.4549ZM46.4549 39.421L54.2856 45.7335H46.4549V39.421Z" fill="url(#paint0_linear_1_192)"/>
<path d="M60 26.9361L60 2.38733L1.51636 2.38733L1.51636 49.3808L60 49.3808V45.7335L50.5466 38.2286H52.3809L60 34.5112H50.5466L60 26.9361ZM60 26.9361L54.2856 26.9361M54.2856 26.9361H46.4549V33.1786L54.2856 26.9361ZM40.1762 45.7335C37.0956 43.0682 30.3984 37.2887 28.2537 35.4932C28.2537 40.6835 26.1373 44.471 24.2325 45.7335M40.1762 45.7335C36.2491 45.7335 27.5624 45.7335 24.2325 45.7335M40.1762 45.7335H24.2325M54.2856 45.7335L46.4549 39.421V45.7335H54.2856ZM42.7159 26.9361V43.0682L24.2325 26.9361L42.7159 26.9361ZM46.4549 23.2889V5.96444L50.0528 5.96444V12.1367L53.6507 19.1507V5.96444H56.5431V23.2889H46.4549ZM42.7159 23.2889V5.96444L32.6982 5.96444V23.2889L35.7317 23.2889V9.12072L39.3296 16.1347V23.2889H42.7159ZM28.8887 5.96444L28.8887 20.1326L20.0703 11.786L26.1373 5.96444L28.8887 5.96444ZM20.8463 5.96444L14.1443 5.96444L17.5306 9.12072L20.8463 5.96444ZM17.5306 14.4513L26.6311 23.2889L8.0067 23.2889L17.5306 14.4513ZM8.92381 5.96444L5.04372 5.96444L5.04372 20.1326L14.8498 11.786L8.92381 5.96444ZM14.8498 26.9361C20.8463 26.9361 24.5147 31.0744 24.5147 36.6855C24.5147 42.2967 20.5939 45.7335 14.8498 45.7335C9.62159 45.7335 5.89028 41.2446 5.89028 36.6855C5.89028 31.0042 9.98202 26.9361 14.8498 26.9361Z" stroke="url(#paint1_linear_1_192)" stroke-width="3"/>
<path d="M12.0435 50.8009H1.51642V62.4202H4.83049V58.041H8.0146L9.63914 55.1216H4.83049V53.6619H10.4839L12.0435 50.8009Z" fill="url(#paint2_linear_1_192)"/>
<path d="M47.8484 50.8009L41.2853 62.4202H45.3791L47.8484 58.041L50.2528 62.4202H60V59.4424H55.9062V50.8009H52.6571V59.4424L47.8484 50.8009Z" fill="url(#paint3_linear_1_192)"/>
<path fill-rule="evenodd" clip-rule="evenodd" d="M16.9171 50.8009H12.8882L6.26009 62.4202H28.2889H31.668V53.6619H33.9423V62.4202H37.3214V56.6981L40.5705 62.4202L46.9387 50.8009H42.9098L40.5705 55.1216L38.1012 50.8009H17.8268V58.041H21.8557L22.5705 59.4424H12.0435L12.8882 58.041H16.9171V55.1216H14.5778L15.3575 53.6619H16.9171V50.8009ZM28.2889 62.4202L24.26 55.1216H21.0759V53.6619H28.2889V62.4202Z" fill="url(#paint4_linear_1_192)"/>
<path d="M28.2889 62.4202H31.668V53.6619H33.9423V62.4202H37.3214V56.6981L40.5705 62.4202L46.9387 50.8009H42.9098L40.5705 55.1216L38.1012 50.8009H17.8268V58.041H21.8557L22.5705 59.4424H12.0435L12.8882 58.041H16.9171V55.1216H14.5778L15.3575 53.6619H16.9171V50.8009H12.8882L6.26009 62.4202H28.2889ZM28.2889 62.4202V53.6619H21.0759V55.1216H24.26L28.2889 62.4202ZM1.51642 50.8009H12.0435L10.4839 53.6619H4.83049V55.1216H9.63914L8.0146 58.041H4.83049V62.4202H1.51642V50.8009ZM41.2853 62.4202L47.8484 50.8009L52.6571 59.4424V50.8009H55.9062V59.4424H60V62.4202H50.2528L47.8484 58.041L45.3791 62.4202H41.2853Z" stroke="url(#paint5_linear_1_192)" stroke-width="3"/>
<path d="M12.413 34.136L21.656 28.6348L17.1218 33.7038L19.8955 34.3795L14.6093 38.1277L17.5827 38.5376L7.97161 44.4074L12.5882 39.2258L9.99456 38.8078L15.2716 34.6861L12.413 34.136Z" fill="url(#paint6_linear_1_192)" stroke="url(#paint7_linear_1_192)" stroke-width="3"/>
<path fill-rule="evenodd" clip-rule="evenodd" d="M59.4836 2L1 2L1 48.9935L59.4836 48.9935V45.3462L50.0303 37.8413H51.8645L59.4836 34.1239H50.0303L59.4836 26.5488L59.4836 2ZM42.1995 42.6809V26.5488L23.7162 26.5488L42.1995 42.6809ZM27.7374 35.1058C29.882 36.9014 36.5793 42.6809 39.6598 45.3462H23.7162C25.621 44.0837 27.7374 40.2962 27.7374 35.1058ZM23.9984 36.2982C23.9984 41.9094 20.0775 45.3462 14.3334 45.3462C9.10523 45.3462 5.37392 40.8573 5.37392 36.2982C5.37392 30.6169 9.46566 26.5488 14.3334 26.5488C20.3299 26.5488 23.9984 30.687 23.9984 36.2982ZM17.0142 14.064L26.1148 22.9016L7.49034 22.9016L17.0142 14.064ZM28.3723 19.7453L28.3723 5.57711L25.621 5.57711L19.5539 11.3987L28.3723 19.7453ZM20.3299 5.57711L13.6279 5.57711L17.0142 8.73339L20.3299 5.57711ZM4.52736 5.57711L8.40745 5.57711L14.3334 11.3987L4.52736 19.7453L4.52736 5.57711ZM42.1995 22.9016V5.57711L32.1818 5.57711V22.9016L35.2154 22.9016V8.73339L38.8133 15.7473V22.9016H42.1995ZM45.9385 5.57711V22.9016H56.0268V5.57711H53.1344V18.7633L49.5364 11.7494V5.57711L45.9385 5.57711ZM45.9385 26.5488V32.7912L53.7693 26.5488H45.9385ZM45.9385 39.0336L53.7693 45.3462H45.9385V39.0336Z" fill="white"/>
<path d="M11.527 50.4136H1V62.0328H4.31407V57.6537H7.49818L9.12272 54.7343H4.31407V53.2746H9.96749L11.527 50.4136Z" fill="white"/>
<path d="M47.332 50.4136L40.7688 62.0328H44.8627L47.332 57.6537L49.7363 62.0328H59.4836V59.055H55.3898V50.4136H52.1407V59.055L47.332 50.4136Z" fill="white"/>
<path fill-rule="evenodd" clip-rule="evenodd" d="M16.4007 50.4136H12.3718L5.74367 62.0328H27.7725H31.1515V53.2746H33.4259V62.0328H36.805V56.3108L40.0541 62.0328L46.4223 50.4136H42.3934L40.0541 54.7343L37.5847 50.4136H17.3104V57.6537H21.3393L22.0541 59.055H11.527L12.3718 57.6537H16.4007V54.7343H14.0613L14.8411 53.2746H16.4007V50.4136ZM27.7725 62.0328L23.7436 54.7343H20.5595V53.2746H27.7725V62.0328Z" fill="white"/>
<path d="M11.8965 33.7487L21.1396 28.2475L16.6054 33.3165L19.3791 33.9922L14.0929 37.7404L17.0663 38.1503L7.45519 44.0201L12.0718 38.8385L9.47814 38.4205L14.7552 34.2988L11.8965 33.7487Z" fill="white"/>
<defs>
<linearGradient id="paint0_linear_1_192" x1="30.7582" y1="2.38733" x2="30.7582" y2="49.3808" gradientUnits="userSpaceOnUse">
<stop stop-color="#001AFF"/>
<stop offset="1" stop-color="#FF0000"/>
</linearGradient>
<linearGradient id="paint1_linear_1_192" x1="30.7582" y1="2.38733" x2="30.7582" y2="49.3808" gradientUnits="userSpaceOnUse">
<stop stop-color="#001AFF"/>
<stop offset="1" stop-color="#FF0000"/>
</linearGradient>
<linearGradient id="paint2_linear_1_192" x1="30.7582" y1="50.8009" x2="30.7582" y2="62.4202" gradientUnits="userSpaceOnUse">
<stop stop-color="#001AFF"/>
<stop offset="1" stop-color="#FF0000"/>
</linearGradient>
<linearGradient id="paint3_linear_1_192" x1="30.7582" y1="50.8009" x2="30.7582" y2="62.4202" gradientUnits="userSpaceOnUse">
<stop stop-color="#001AFF"/>
<stop offset="1" stop-color="#FF0000"/>
</linearGradient>
<linearGradient id="paint4_linear_1_192" x1="30.7582" y1="50.8009" x2="30.7582" y2="62.4202" gradientUnits="userSpaceOnUse">
<stop stop-color="#001AFF"/>
<stop offset="1" stop-color="#FF0000"/>
</linearGradient>
<linearGradient id="paint5_linear_1_192" x1="30.7582" y1="50.8009" x2="30.7582" y2="62.4202" gradientUnits="userSpaceOnUse">
<stop stop-color="#001AFF"/>
<stop offset="1" stop-color="#FF0000"/>
</linearGradient>
<linearGradient id="paint6_linear_1_192" x1="16.5215" y1="27.6467" x2="13.1061" y2="45.3955" gradientUnits="userSpaceOnUse">
<stop stop-color="#001AFF"/>
<stop offset="1" stop-color="#FF0000"/>
</linearGradient>
<linearGradient id="paint7_linear_1_192" x1="16.5215" y1="27.6467" x2="13.1061" y2="45.3955" gradientUnits="userSpaceOnUse">
<stop stop-color="#001AFF"/>
<stop offset="1" stop-color="#FF0000"/>
</linearGradient>
</defs>
</svg>
