<svg width="197" height="48" viewBox="0 0 197 48" fill="none" xmlns="http://www.w3.org/2000/svg">
<path d="M10 34L20 14H10V34ZM0 44V4H32.5V14L17.5 44H0ZM28 44L48 4H60.5V14H55.5L53 19H60.5V29H48L45.5 34H63L68 44H28ZM63.5 44L83.5 4L89.75 16.5L81 34H98.5L103.5 44H63.5Z" fill="white"/>
<path d="M152.85 2.73553H119.681V12.9939H142.933V18.1231H132.675L119.681 43.769H152.85V32.8267H138.146L140.198 28.3814H152.85V2.73553Z" fill="white"/>
<path fill-rule="evenodd" clip-rule="evenodd" d="M163.45 2.73553H196.618V43.769H163.45V2.73553ZM186.36 13.3358H173.708V33.5106H186.36V13.3358Z" fill="white"/>
</svg>
