<svg width="174" height="42" viewBox="0 0 174 42" fill="none" xmlns="http://www.w3.org/2000/svg">
<path d="M10 30.9301L20 10.9301H10V30.9301ZM0 40.9301V0.930054H32.5V10.9301L17.5 40.9301H0ZM28 40.9301L48 0.930054H60.5V10.9301H55.5L53 15.9301H60.5V25.9301H48L45.5 30.9301H63L68 40.9301H28ZM63.5 40.9301L83.5 0.930054L89.75 13.4301L81 30.9301H98.5L103.5 40.9301H63.5Z" fill="white"/>
<rect x="119.681" y="0.246216" width="10.2584" height="41.0334" fill="white"/>
<path fill-rule="evenodd" clip-rule="evenodd" d="M140.54 0.246216H173.708V41.2796H140.54V31.0213H163.45V26.2341H153.533L140.54 0.246216ZM163.45 10.5046H158.321L161.056 15.6338H163.45V10.5046Z" fill="white"/>
</svg>
