<svg width="804" height="282" viewBox="0 0 804 282" fill="none" xmlns="http://www.w3.org/2000/svg">
<path d="M93.8994 177.588H0V281.643H29.5609V242.426H57.9626L72.4533 216.281H29.5609V203.209H79.9884L93.8994 177.588Z" fill="white"/>
<path d="M413.273 177.588L354.731 281.643H391.248L413.273 242.426L434.72 281.643H521.664V254.975H485.147V177.588H456.166V254.975L413.273 177.588Z" fill="white"/>
<path fill-rule="evenodd" clip-rule="evenodd" d="M137.371 177.588H101.435L42.3127 281.643H238.806H268.947V203.209H289.233V281.643H319.374V230.4L348.355 281.643L405.159 177.588H369.222L348.355 216.281L326.33 177.588H145.486V242.426H181.423L187.799 254.975H93.8994L101.435 242.426H137.371V216.281H116.505L123.46 203.209H137.371V177.588ZM238.806 281.643L202.869 216.281H174.467V203.209H238.806V281.643Z" fill="white"/>
<path d="M455.762 168.569V63.8205H481.429V168.569H455.762Z" fill="white"/>
<path d="M488.366 63.8205H514.727V116.195L540.393 63.8205H572.304L547.33 116.195L572.304 168.569V232.39L514.727 116.195V168.569H488.366V63.8205Z" fill="white"/>
<path d="M635.431 63.8205L583.403 168.569H804V142.209H772.09V52.0276L745.729 0V142.209H700.638L706.882 129.722H738.792V103.362H720.062L726.999 90.8749H738.792V63.8205H706.882L667.341 142.209H629.187L635.431 129.722H667.341V103.362H648.611L654.854 90.8749H667.341V63.8205H635.431Z" fill="white"/>
<path fill-rule="evenodd" clip-rule="evenodd" d="M52.7213 63.8205L0 168.569H240.714V116.195L267.075 168.569H299.679L274.012 116.195L293.436 78.3883V90.8749H318.409V168.569H345.463V90.8749H364.193V168.569H391.248V116.195L417.513 168.569H449.519L430.095 129.722H449.519V63.8205H267.075L240.714 116.195V63.8205H215.047V141.515H169.957L176.2 129.722H208.11V103.362H188.687L196.318 90.8749H208.11V63.8205H176.2L135.965 141.515H117.236V50.6402L91.5686 0V141.515H46.478L52.7213 129.722H85.3253V103.362H65.9016L72.145 90.8749H85.3253V63.8205H52.7213ZM391.248 103.362V90.8749H423.158V103.362H391.248Z" fill="white"/>
<path d="M563.86 113.767L584.043 65.2079L580.973 98.6223L593.735 93.4664L583.927 123.674L596.701 116.875L576.145 167.973L579.212 133.868L567.895 139.555L576.591 107.862L563.86 113.767Z" fill="white"/>
</svg>
