<svg width="174" height="46" viewBox="0 0 174 46" fill="none" xmlns="http://www.w3.org/2000/svg">
<path d="M10 33L20 13H10V33ZM0 43V3H32.5V13L17.5 43H0ZM28 43L48 3H60.5V13H55.5L53 18H60.5V28H48L45.5 33H63L68 43H28ZM63.5 43L83.5 3L89.75 15.5L81 33H98.5L103.5 43H63.5Z" fill="white"/>
<path d="M152.849 2.05164H119.681V12.31H142.933V17.4392H132.675L119.681 43.0851H152.849V32.1428H138.146L140.198 27.6975H152.849V2.05164Z" fill="white"/>
<rect x="163.45" y="2.05164" width="10.2584" height="41.0334" fill="white"/>
</svg>
